<mxfile host="app.diagrams.net" agent="Mozilla/5.0 (Windows NT 10.0; Win64; x64) AppleWebKit/537.36 (KHTML, like Gecko) Chrome/131.0.0.0 Safari/537.36" version="28.2.7">
  <diagram name="Page-1" id="_d_a9YYGqJiQft2ikfkn">
    <mxGraphModel dx="1251" dy="644" grid="1" gridSize="10" guides="1" tooltips="1" connect="1" arrows="1" fold="1" page="1" pageScale="1" pageWidth="850" pageHeight="1100" math="0" shadow="0">
      <root>
        <mxCell id="0" />
        <mxCell id="1" parent="0" />
        <mxCell id="L7yRWfFeLJV36y7C1LjB-1" value="&lt;font style=&quot;font-size: 21px;&quot;&gt;Start&lt;/font&gt;" style="ellipse;whiteSpace=wrap;html=1;align=center;" parent="1" vertex="1">
          <mxGeometry x="123" y="10" width="85" height="50" as="geometry" />
        </mxCell>
        <mxCell id="L7yRWfFeLJV36y7C1LjB-2" value="" style="shape=flexArrow;endArrow=classic;html=1;rounded=0;exitX=0.518;exitY=0.84;exitDx=0;exitDy=0;exitPerimeter=0;" parent="1" source="L7yRWfFeLJV36y7C1LjB-1" target="L7yRWfFeLJV36y7C1LjB-3" edge="1">
          <mxGeometry width="50" height="50" relative="1" as="geometry">
            <mxPoint x="140" y="350" as="sourcePoint" />
            <mxPoint x="167" y="120" as="targetPoint" />
          </mxGeometry>
        </mxCell>
        <mxCell id="L7yRWfFeLJV36y7C1LjB-3" value="&lt;font&gt;Ask user for how&amp;nbsp;&lt;/font&gt;&lt;div&gt;&lt;font&gt;much money they are putting in the&amp;nbsp;&lt;/font&gt;&lt;/div&gt;&lt;div&gt;&lt;font&gt;stock market&lt;/font&gt;&lt;/div&gt;" style="shape=parallelogram;perimeter=parallelogramPerimeter;whiteSpace=wrap;html=1;fixedSize=1;" parent="1" vertex="1">
          <mxGeometry x="90.5" y="90" width="150" height="70" as="geometry" />
        </mxCell>
        <mxCell id="L7yRWfFeLJV36y7C1LjB-6" value="" style="shape=flexArrow;endArrow=classic;html=1;rounded=0;exitX=0.5;exitY=1;exitDx=0;exitDy=0;entryX=0.5;entryY=0;entryDx=0;entryDy=0;" parent="1" source="L7yRWfFeLJV36y7C1LjB-3" target="L7yRWfFeLJV36y7C1LjB-7" edge="1">
          <mxGeometry width="50" height="50" relative="1" as="geometry">
            <mxPoint x="140" y="350" as="sourcePoint" />
            <mxPoint x="160" y="220" as="targetPoint" />
          </mxGeometry>
        </mxCell>
        <mxCell id="L7yRWfFeLJV36y7C1LjB-7" value="Ask user how long&amp;nbsp;&lt;div&gt;they are putting the&amp;nbsp;&lt;/div&gt;&lt;div&gt;money into the&lt;/div&gt;&lt;div&gt;stock market&lt;/div&gt;" style="shape=parallelogram;perimeter=parallelogramPerimeter;whiteSpace=wrap;html=1;fixedSize=1;" parent="1" vertex="1">
          <mxGeometry x="88" y="220" width="152" height="70" as="geometry" />
        </mxCell>
        <mxCell id="L7yRWfFeLJV36y7C1LjB-8" value="" style="shape=flexArrow;endArrow=classic;html=1;rounded=0;exitX=0.461;exitY=1.043;exitDx=0;exitDy=0;exitPerimeter=0;entryX=0.5;entryY=0;entryDx=0;entryDy=0;" parent="1" source="L7yRWfFeLJV36y7C1LjB-7" target="L7yRWfFeLJV36y7C1LjB-10" edge="1">
          <mxGeometry width="50" height="50" relative="1" as="geometry">
            <mxPoint x="170" y="380" as="sourcePoint" />
            <mxPoint x="158" y="340" as="targetPoint" />
          </mxGeometry>
        </mxCell>
        <mxCell id="L7yRWfFeLJV36y7C1LjB-9" value="Ask user what&amp;nbsp;&lt;div&gt;stock they&lt;div&gt;are putting there&lt;/div&gt;&lt;div&gt;money into&lt;/div&gt;&lt;/div&gt;" style="shape=parallelogram;perimeter=parallelogramPerimeter;whiteSpace=wrap;html=1;fixedSize=1;" parent="1" vertex="1">
          <mxGeometry x="80" y="490" width="152" height="70" as="geometry" />
        </mxCell>
        <mxCell id="L7yRWfFeLJV36y7C1LjB-10" value="tells the user how many of each stock they can buy with their money" style="rounded=0;whiteSpace=wrap;html=1;" parent="1" vertex="1">
          <mxGeometry x="96" y="350" width="120" height="60" as="geometry" />
        </mxCell>
        <mxCell id="L7yRWfFeLJV36y7C1LjB-11" value="" style="shape=flexArrow;endArrow=classic;html=1;rounded=0;exitX=0.45;exitY=1.033;exitDx=0;exitDy=0;exitPerimeter=0;entryX=0.5;entryY=0;entryDx=0;entryDy=0;" parent="1" source="L7yRWfFeLJV36y7C1LjB-10" target="L7yRWfFeLJV36y7C1LjB-9" edge="1">
          <mxGeometry width="50" height="50" relative="1" as="geometry">
            <mxPoint x="400" y="290" as="sourcePoint" />
            <mxPoint x="450" y="240" as="targetPoint" />
          </mxGeometry>
        </mxCell>
        <mxCell id="L7yRWfFeLJV36y7C1LjB-12" value="Get percentage company went down in the inputted amount of years" style="rounded=0;whiteSpace=wrap;html=1;" parent="1" vertex="1">
          <mxGeometry x="350" y="20" width="120" height="60" as="geometry" />
        </mxCell>
        <mxCell id="L7yRWfFeLJV36y7C1LjB-13" value="" style="shape=flexArrow;endArrow=classic;html=1;rounded=0;exitX=1;exitY=0;exitDx=0;exitDy=0;entryX=0;entryY=0.5;entryDx=0;entryDy=0;" parent="1" source="L7yRWfFeLJV36y7C1LjB-9" target="L7yRWfFeLJV36y7C1LjB-12" edge="1">
          <mxGeometry width="50" height="50" relative="1" as="geometry">
            <mxPoint x="270" y="460" as="sourcePoint" />
            <mxPoint x="320" y="410" as="targetPoint" />
          </mxGeometry>
        </mxCell>
        <mxCell id="L7yRWfFeLJV36y7C1LjB-14" value="&lt;font style=&quot;font-size: 11px;&quot;&gt;Print how&amp;nbsp;&lt;span style=&quot;background-color: transparent; color: light-dark(rgb(0, 0, 0), rgb(255, 255, 255));&quot;&gt;much&amp;nbsp;&lt;/span&gt;&lt;/font&gt;&lt;div&gt;&lt;div&gt;&lt;font style=&quot;font-size: 11px;&quot;&gt;money the&lt;/font&gt;&lt;/div&gt;&lt;div&gt;&lt;font style=&quot;font-size: 11px;&quot;&gt;&amp;nbsp;user made / loss&lt;/font&gt;&lt;/div&gt;&lt;/div&gt;&lt;div&gt;&lt;font style=&quot;font-size: 11px;&quot;&gt;and the percentage their&amp;nbsp;&lt;/font&gt;&lt;/div&gt;&lt;div&gt;&lt;font style=&quot;font-size: 11px;&quot;&gt;money went up or down by&lt;/font&gt;&lt;/div&gt;" style="shape=parallelogram;perimeter=parallelogramPerimeter;whiteSpace=wrap;html=1;fixedSize=1;" parent="1" vertex="1">
          <mxGeometry x="330" y="350" width="160" height="85" as="geometry" />
        </mxCell>
        <mxCell id="L7yRWfFeLJV36y7C1LjB-15" value="Use percentage to calculate users new amount of money" style="rounded=0;whiteSpace=wrap;html=1;" parent="1" vertex="1">
          <mxGeometry x="350" y="120" width="120" height="60" as="geometry" />
        </mxCell>
        <mxCell id="L7yRWfFeLJV36y7C1LjB-18" value="&lt;br&gt;&lt;div&gt;&lt;br&gt;&lt;/div&gt;" style="text;html=1;whiteSpace=wrap;strokeColor=none;fillColor=none;align=center;verticalAlign=middle;rounded=0;" parent="1" vertex="1">
          <mxGeometry x="440" y="270" width="60" height="30" as="geometry" />
        </mxCell>
        <mxCell id="L7yRWfFeLJV36y7C1LjB-19" value="" style="shape=flexArrow;endArrow=classic;html=1;rounded=0;entryX=0.5;entryY=0;entryDx=0;entryDy=0;exitX=0.5;exitY=1;exitDx=0;exitDy=0;" parent="1" source="L7yRWfFeLJV36y7C1LjB-15" target="xaiFQaGljb27SQI2KcHH-3" edge="1">
          <mxGeometry width="50" height="50" relative="1" as="geometry">
            <mxPoint x="310" y="250" as="sourcePoint" />
            <mxPoint x="360" y="200" as="targetPoint" />
          </mxGeometry>
        </mxCell>
        <mxCell id="L7yRWfFeLJV36y7C1LjB-20" value="&lt;font style=&quot;font-size: 21px;&quot;&gt;End&lt;/font&gt;" style="ellipse;whiteSpace=wrap;html=1;" parent="1" vertex="1">
          <mxGeometry x="363" y="500" width="94" height="60" as="geometry" />
        </mxCell>
        <mxCell id="L7yRWfFeLJV36y7C1LjB-21" value="" style="shape=flexArrow;endArrow=classic;html=1;rounded=0;entryX=0.5;entryY=0;entryDx=0;entryDy=0;exitX=0.5;exitY=1;exitDx=0;exitDy=0;" parent="1" source="L7yRWfFeLJV36y7C1LjB-14" target="L7yRWfFeLJV36y7C1LjB-20" edge="1">
          <mxGeometry width="50" height="50" relative="1" as="geometry">
            <mxPoint x="310" y="340" as="sourcePoint" />
            <mxPoint x="360" y="290" as="targetPoint" />
          </mxGeometry>
        </mxCell>
        <mxCell id="xaiFQaGljb27SQI2KcHH-1" value="" style="shape=flexArrow;endArrow=classic;html=1;rounded=0;entryX=0.5;entryY=0;entryDx=0;entryDy=0;exitX=0.5;exitY=1;exitDx=0;exitDy=0;" edge="1" parent="1" source="L7yRWfFeLJV36y7C1LjB-12" target="L7yRWfFeLJV36y7C1LjB-15">
          <mxGeometry width="50" height="50" relative="1" as="geometry">
            <mxPoint x="310" y="340" as="sourcePoint" />
            <mxPoint x="360" y="290" as="targetPoint" />
          </mxGeometry>
        </mxCell>
        <mxCell id="xaiFQaGljb27SQI2KcHH-3" value="use turtle to draw stocks&amp;nbsp;&lt;div&gt;going up or down&lt;/div&gt;" style="shape=parallelogram;perimeter=parallelogramPerimeter;whiteSpace=wrap;html=1;fixedSize=1;" vertex="1" parent="1">
          <mxGeometry x="330" y="212.5" width="160" height="85" as="geometry" />
        </mxCell>
        <mxCell id="xaiFQaGljb27SQI2KcHH-4" value="" style="shape=flexArrow;endArrow=classic;html=1;rounded=0;entryX=0.5;entryY=0;entryDx=0;entryDy=0;exitX=0.5;exitY=1;exitDx=0;exitDy=0;" edge="1" parent="1" source="xaiFQaGljb27SQI2KcHH-3" target="L7yRWfFeLJV36y7C1LjB-14">
          <mxGeometry width="50" height="50" relative="1" as="geometry">
            <mxPoint x="310" y="340" as="sourcePoint" />
            <mxPoint x="360" y="290" as="targetPoint" />
          </mxGeometry>
        </mxCell>
      </root>
    </mxGraphModel>
  </diagram>
</mxfile>
